:SAMPLES-PER-SECOND 24
:FULLY-SPECIFIED
:DEGREES
456
root  15.055 41.6567 26.6556 10.5895 -34.4967 -5.15692
RightUpLeg  -5.01097 -7.7411 -1.73688
RightLeg  15.7923 -2.92353 -0.596025
RightFoot  -0.587146 -1.0757 11.4223
RightToes  -2.08645e-008 3.77894e-005 6.81332e-007
Spine  -5.44202 1.55538 2.68394
Spine1  9.01936 2.24147 -2.76025
HEad  -28.8562 16.9648 -9.31695
LeftShoulder1  5.91423 -11.5189 -33.3698
LeftArm  3.69089 34.2274 -30.3175
LeftForeArm  165.285 -65.2193 -158.248
LeftHand  -0.189449 -2.87981 2.88805
RightShoulder  3.82561 6.53693 32.2147
RightArm  15.2627 -29.8508 33.4428
RightForeArm  153.944 74.0757 143.69
RightHand  -0.236947 9.08627 -2.28959
LeftUpLeg  -14.6949 2.33353 11.288
LeftLeg  16.3205 -5.10553 -1.32417
LeftFoot  3.49501 2.62586 -20.1012
LeftToes  1.24767e-006 1.47042e-008 1.32732e-009
457
root  15.0495 40.7903 26.5105 9.61816 -34.0262 -4.04443
RightUpLeg  -6.49329 -6.72827 -1.44031
RightLeg  19.1062 -2.46598 -1.09198
RightFoot  -4.29645 -0.595108 9.1736
RightToes  -2.08645e-008 3.77894e-005 6.81332e-007
Spine  -2.38315 1.39077 0.685503
Spine1  6.75348 1.86573 -1.53507
HEad  -30.8651 16.2994 -8.51129
LeftShoulder1  5.85887 -11.5211 -33.0012
LeftArm  4.62684 31.4595 -29.7293
LeftForeArm  164.836 -66.0091 -157.435
LeftHand  -0.17962 -2.86577 2.75021
RightShoulder  3.78223 6.52492 31.8258
RightArm  15.9758 -27.4411 31.4659
RightForeArm  152.595 74.3887 142.714
RightHand  -0.315867 8.84245 -2.95757
LeftUpLeg  -17.1519 -5.83571 12.3093
LeftLeg  20.3614 3.41923 1.76334
LeftFoot  2.06139 1.4721 -12.5172
LeftToes  1.24767e-006 1.47042e-008 1.32732e-009
458
root  15.1714 39.3965 26.4311 8.50989 -34.0222 -2.81378
RightUpLeg  -8.37415 -5.83554 -2.17982
RightLeg  25.3989 -3.85136 -2.21723
RightFoot  -13.799 0.0514316 6.75871
RightToes  -2.08645e-008 3.77894e-005 6.81332e-007
Spine  0.543506 1.55002 1.02172
Spine1  5.30363 2.31237 -2.85573
HEad  -33.0011 14.7492 -8.24738
LeftShoulder1  6.24132 -11.9938 -34.2653
LeftArm  6.03377 25.7838 -26.876
LeftForeArm  161.791 -67.0812 -155.955
LeftHand  -0.292074 -2.39958 4.56097
RightShoulder  3.79638 6.52596 31.9639
RightArm  15.5117 -24.6519 29.7488
RightForeArm  148.771 75.0654 140.261
RightHand  -0.452236 8.77719 -4.08276
LeftUpLeg  -19.5008 -10.2553 12.7242
LeftLeg  26.1559 5.00636 3.00775
LeftFoot  -4.06513 0.886076 -13.5047
LeftToes  1.24767e-006 1.47042e-008 1.32732e-009
459
root  15.3648 38.0456 26.4702 8.53589 -35.0716 -2.33911
RightUpLeg  -11.2819 -4.24424 -2.72629
RightLeg  31.7936 -4.96839 -3.5618
RightFoot  -22.2195 0.382156 5.55251
RightToes  -2.08645e-008 3.77894e-005 6.81332e-007
Spine  1.02133 1.95729 2.69978
Spine1  6.3469 3.16996 -4.77959
HEad  -35.4914 13.7983 -8.70635
LeftShoulder1  6.9209 -12.6685 -36.7337
LeftArm  5.81937 18.7594 -24.3371
LeftForeArm  160.23 -69.8957 -152.198
LeftHand  -0.500704 -2.31359 7.75
RightShoulder  3.74595 6.41778 31.869
RightArm  13.361 -21.3179 29.5982
RightForeArm  141.767 77.4085 130.895
RightHand  -0.586066 8.65437 -5.21698
LeftUpLeg  -21.5067 -9.7066 12.3612
LeftLeg  31.5667 3.56514 2.72802
LeftFoot  -13.5635 -0.209954 -15.7886
LeftToes  1.24767e-006 1.47042e-008 1.32732e-009
460
root  15.4499 37.482 26.6253 8.78931 -37.0115 -2.0304
RightUpLeg  -13.0736 -1.08073 -2.96463
RightLeg  34.5327 -7.05834 -5.43839
RightFoot  -24.9202 0.463031 5.30213
RightToes  -2.08645e-008 3.77894e-005 6.81332e-007
Spine  0.0980234 2.28308 1.92152
Spine1  8.46118 3.291 -3.76965
HEad  -38.9193 14.7038 -9.78724
LeftShoulder1  7.38045 -13.1019 -38.3292
LeftArm  3.18093 16.5224 -24.9345
LeftForeArm  160.549 -72.6647 -147.773
LeftHand  -0.605581 -2.25881 9.40221
RightShoulder  3.84558 6.48368 32.6175
RightArm  10.1668 -20.8005 30.0655
RightForeArm  135.9 79.0316 121.362
RightHand  -0.683869 8.94429 -5.88508
LeftUpLeg  -22.0838 -8.00575 11.2395
LeftLeg  33.8433 4.95122 3.92378
LeftFoot  -17.744 -0.690804 -14.1159
LeftToes  1.24767e-006 1.47042e-008 1.32732e-009
461
root  15.3943 38.044 26.9777 8.59473 -39.4438 -1.52197
RightUpLeg  -11.2502 2.52884 -3.53047
RightLeg  30.4247 -9.25153 -6.03045
RightFoot  -22.0505 0.343719 5.26188
RightToes  -2.08645e-008 3.77894e-005 6.81332e-007
Spine  -0.69501 2.05324 -0.199965
Spine1  9.22297 2.42963 -1.16685
HEad  -40.4453 17.2377 -11.0948
LeftShoulder1  7.35817 -13.0887 -38.2317
LeftArm  0.759765 21.6143 -27.7058
LeftForeArm  159.175 -72.252 -148.307
LeftHand  -0.560339 -1.6768 9.37985
RightShoulder  4.03779 6.64858 33.8837
RightArm  8.90794 -24.8282 30.6439
RightForeArm  140.841 78.3238 126.597
RightHand  -0.634078 9.13573 -5.43755
LeftUpLeg  -19.6197 -6.56298 9.92895
LeftLeg  30.6324 6.61162 4.54106
LeftFoot  -14.5232 -0.294042 -13.4951
LeftToes  1.24767e-006 1.47042e-008 1.32732e-009
462
root  15.2605 39.3088 27.5147 9.71741 -42.6494 -1.21851
RightUpLeg  -9.03509 4.9567 -4.65543
RightLeg  22.0225 -8.84117 -4.12612
RightFoot  -14.31 0.0362596 5.14237
RightToes  -2.08645e-008 3.77894e-005 6.81332e-007
Spine  -2.66956 1.50598 -0.693257
Spine1  8.36845 1.58886 -0.047793
HEad  -37.7604 21.0467 -11.7637
LeftShoulder1  7.1197 -12.8284 -37.5066
LeftArm  0.511482 29.8999 -29.4682
LeftForeArm  157.745 -69.9124 -151.872
LeftHand  -0.514086 -1.6512 8.65138
RightShoulder  4.05441 6.64664 34.0549
RightArm  11.0087 -30.7147 30.7117
RightForeArm  148.892 76.2763 136.704
RightHand  -0.601287 8.85457 -5.27312
LeftUpLeg  -16.1519 -2.14711 8.90938
LeftLeg  23.2049 5.40484 2.87087
LeftFoot  -7.66586 0.537576 -15.2554
LeftToes  1.24767e-006 1.47042e-008 1.32732e-009
463
root  15.1041 40.5667 27.9657 12.4733 -46.5842 -1.41241
RightUpLeg  -9.87808 2.90476 -5.11289
RightLeg  15.9718 -7.03965 -2.75058
RightFoot  -5.66309 -0.289362 5.07943
RightToes  -2.08645e-008 3.77894e-005 6.81332e-007
Spine  -5.24002 1.16714 -0.419639
Spine1  6.76913 1.17103 0.163599
HEad  -34.4462 25.3537 -11.5215
LeftShoulder1  6.89907 -12.5996 -36.7813
LeftArm  2.48112 37.0481 -28.6935
LeftForeArm  161.389 -67.4416 -155.498
LeftHand  -0.403947 -2.14506 6.40878
RightShoulder  4.06952 6.71886 33.9199
RightArm  14.6213 -35.5554 28.2648
RightForeArm  156.675 73.4866 145.44
RightHand  -0.530952 9.1143 -4.63005
LeftUpLeg  -14.5947 4.15189 8.3797
LeftLeg  16.2235 2.83766 1.24345
LeftFoot  0.754376 1.64595 -15.5791
LeftToes  1.24767e-006 1.47042e-008 1.32732e-009
464
root  15.0736 41.318 28.1299 14.1613 -50.2393 -1.80615
RightUpLeg  -11.9718 -3.5196 -3.6596
RightLeg  16.0288 -7.79597 -2.87047
RightFoot  -2.93547 -0.389275 4.97251
RightToes  -2.08645e-008 3.77894e-005 6.81332e-007
Spine  -4.94617 0.964426 -1.06615
Spine1  5.43284 0.785005 1.2121
HEad  -35.1978 28.6031 -11.6081
LeftShoulder1  6.91524 -12.7457 -36.5016
LeftArm  6.10651 40.3765 -25.6124
LeftForeArm  165.554 -65.0634 -158.423
LeftHand  -0.252514 -2.253 4.0338
RightShoulder  4.22075 6.95421 34.4648
RightArm  17.399 -37.3884 23.9209
RightForeArm  161.572 70.5122 151.505
RightHand  -0.475608 9.00687 -4.21469
LeftUpLeg  -14.0083 3.65478 8.72432
LeftLeg  13.3677 2.28998 1.12653
LeftFoot  6.76395 2.21977 -14.1385
LeftToes  1.24767e-006 1.47042e-008 1.32732e-009
465
root  15.261 41.34 28.1591 14.072 -53.5659 -2.51654
RightUpLeg  -13.9248 -11.7909 -0.954597
RightLeg  21.5183 -5.89804 -2.74543
RightFoot  -6.00835 -0.352368 6.80278
RightToes  -2.08645e-008 3.77894e-005 6.81332e-007
Spine  -1.82336 0.972729 -1.41085
Spine1  5.29768 0.568825 2.36393
HEad  -38.7615 30.1692 -12.8961
LeftShoulder1  7.02837 -13.0355 -36.4403
LeftArm  10.2245 39.0094 -22.2217
LeftForeArm  165.148 -64.0266 -159.32
LeftHand  -0.172854 -2.87094 2.66186
RightShoulder  4.18346 6.95367 34.114
RightArm  17.918 -36.2072 21.7724
RightForeArm  162.048 69.4101 153.143
RightHand  -0.48691 7.91409 -4.61124
LeftUpLeg  -12.7787 -1.99378 9.15075
LeftLeg  15.0032 3.83886 1.84932
LeftFoot  5.47161 1.91879 -13.1456
LeftToes  1.24767e-006 1.47042e-008 1.32732e-009
466
root  15.4466 40.7876 28.2673 14.7236 -57.8077 -4.03369
RightUpLeg  -16.7013 -17.7376 2.28077
RightLeg  28.4181 -1.38756 -1.04605
RightFoot  -8.03088 -0.293813 8.26072
RightToes  -2.08645e-008 3.77894e-005 6.81332e-007
Spine  0.746992 1.19244 -1.08463
Spine1  5.37883 0.653243 2.88402
HEad  -40.5629 31.3034 -14.2616
LeftShoulder1  6.9386 -13.0209 -35.9468
LeftArm  13.2885 35.9508 -20.2742
LeftForeArm  162.442 -65.1683 -157.989
LeftHand  -0.0946045 -3.24774 1.51201
RightShoulder  3.98502 6.76499 32.9217
RightArm  17.645 -33.3569 21.2506
RightForeArm  159.706 70.4301 151.366
RightHand  -0.553505 7.14296 -5.47066
LeftUpLeg  -11.0852 -2.03401 8.62364
LeftLeg  17.2867 5.91714 2.44227
LeftFoot  -0.409063 1.27647 -13.2682
LeftToes  1.24767e-006 1.47042e-008 1.32732e-009
